<?xml version="1.0" encoding="UTF-8"?>
<svg id="Camada_2" data-name="Camada 2" xmlns="http://www.w3.org/2000/svg" viewBox="0 0 841.25 167.22">
  <defs>
    <style>
      .cls-1 {
        font-family: Magistral-Medium, Magistral;
        font-size: 122.97px;
        font-weight: 500;
        letter-spacing: .05em;
      }

      .cls-1, .cls-2 {
        fill: #fff;
      }

      .cls-2 {
        stroke-width: 0px;
      }
    </style>
  </defs>
  <g id="Camada_1-2" data-name="Camada 1">
    <g>
      <path class="cls-2" d="m66.75,77.17l53.71-51.93-51.07-.52-25.94,25.28v-25.03l-25.78-14.82L0,0v151.41l4.68-2.69,38.78-22.28v-22.55l34.72,33.24h43.5v-7l-54.92-52.97Zm-30.39,10.09l-10.56-10.11,10.56-10.29v20.41Zm0-30.32l-20.79,20.26,20.79,19.89v25.25l-29.25,16.81V12.27l29.25,16.81v27.85Zm44.66,73.09l-37.57-35.97v-34.13l28.79-28.08,30.83.31-46.56,45.01,54.81,52.85h-30.31Z"/>
      <text class="cls-1" transform="translate(124.59 131.68)"><tspan x="0" y="0">aptasglobal</tspan></text>
    </g>
  </g>
</svg>